<svg width="487" height="495" viewBox="0 0 487 495" fill="none" xmlns="http://www.w3.org/2000/svg">
<mask id="mask0_20_2246" style="mask-type:alpha" maskUnits="userSpaceOnUse" x="0" y="0" width="487" height="495">
<rect width="487" height="495" fill="#D9D9D9"/>
</mask>
<g mask="url(#mask0_20_2246)">
<path d="M130.758 454.286C233.582 562.51 613.964 443.842 442.502 188.286C389.913 119.486 247.831 -14.0103 100.216 2.40368C-84.3042 22.9212 26.4923 344.544 130.758 454.286Z" fill="#94B6C2" fill-opacity="0.5"/>
</g>
<path d="M262.316 257.069L269.372 364.065L301.714 364.885L308.476 258.219L262.316 257.069Z" fill="#FB9159"/>
<path d="M268.196 417.405L351.597 417.294C351.744 407.51 340.364 403.938 330.624 402.984L301.799 395.107L302.069 359.222L268.294 361.582L268.196 417.405Z" fill="#161730"/>
<path d="M336.247 403.84C336.247 403.84 328.113 415.998 330.22 417.294C332.327 418.591 351.597 417.294 351.597 417.294C351.597 417.294 353.177 407.241 336.247 403.84Z" fill="#FE4877"/>
<path d="M267.425 372.59C267.425 372.59 283.816 379.647 281.611 387.365C279.406 395.083 276.968 408.892 283.656 410.604C290.345 412.316 287.503 417.356 287.503 417.356H268.196L267.425 372.59Z" fill="#FE4877"/>
<path d="M294.339 404.464L293.763 403.694L303.122 396.685L303.698 397.456L294.339 404.464Z" fill="#FFCB39"/>
<path d="M313.163 400.605L304.857 408.083L305.497 408.791L313.803 401.313L313.163 400.605Z" fill="#FFCB39"/>
<path d="M323.675 400.909L317.041 408.618L317.766 409.24L324.4 401.531L323.675 400.909Z" fill="#FFCB39"/>
<path d="M267.608 416.903L351.585 416.512C351.585 416.512 352.406 426.076 347.493 423.679C342.581 421.282 341.172 423.887 338.734 424.107C336.296 424.327 334.839 424.339 329.742 422.346C324.646 420.352 326.3 424.792 322.392 424.278C318.484 423.765 315.226 423.055 312.065 420.523C308.905 417.992 306.932 424.706 303.245 424.401C299.557 424.095 301.371 421.062 296.875 419.667C292.379 418.273 294.057 424.988 290.578 424.474C287.099 423.96 288.312 418.493 283.019 419.117C277.727 419.741 279.344 425.122 275.289 424.572C271.235 424.021 268.527 425.917 267.608 416.903Z" fill="#6562BE"/>
<path d="M206.479 245.339H76.1959V334.307H206.479V245.339Z" fill="#6562BE"/>
<path d="M141.331 245.339H76.1959V334.307H141.331V245.339Z" fill="#FFCB39"/>
<path d="M189.708 334.307H59.4252V423.288H189.708V334.307Z" fill="#6562BE"/>
<path d="M124.561 334.307H59.4252V423.288H124.561V334.307Z" fill="#FFCB39"/>
<path d="M76.1959 278.767V277.727C79.1852 276.131 82.5207 275.291 85.9105 275.281C86.7149 275.35 87.5244 275.231 88.2749 274.934C89.0254 274.636 89.6964 274.169 90.2349 273.568C95.2698 268.309 94.939 252.69 94.4735 245.315H95.4045C95.9068 252.849 96.2253 268.639 90.8964 274.204C90.2651 274.902 89.4814 275.444 88.6061 275.79C87.7308 276.136 86.7874 276.275 85.8492 276.198C82.4671 276.236 79.1483 277.119 76.1959 278.767Z" fill="white"/>
<path d="M111.012 305.931C104.776 315.251 87.1968 321.465 76.1959 322.015V321.122C87.7971 320.621 104.568 313.918 110.252 305.418C111.392 303.904 112.087 302.104 112.261 300.218C112.434 298.332 112.078 296.435 111.232 294.74C107.251 286.57 101.211 289.407 92.8565 293.334C88.0911 295.56 82.4804 298.226 76.2082 299.119V298.202C82.2109 297.309 87.5888 294.801 92.4767 292.502C100.978 288.515 107.692 285.359 112.077 294.337C113.003 296.175 113.394 298.237 113.206 300.286C113.017 302.336 112.257 304.292 111.012 305.931Z" fill="white"/>
<path d="M141.491 308.989C141.491 309.442 141.393 309.882 141.331 310.298C140.903 313.221 139.947 315.264 138.538 316.242C138.281 316.426 114.503 332.558 103.184 332.558C102.128 332.588 101.077 332.4 100.096 332.008C93.7017 329.17 85.2735 329.256 76.1959 330.1V329.183C85.3715 328.326 93.91 328.253 100.476 331.164C107.998 334.515 132.327 319.41 138.011 315.496C139.371 314.554 140.278 312.206 140.572 308.904C141.429 299.412 137.24 284.54 128.775 276.076C116.634 263.918 108.427 245.694 108.341 245.498L108.77 245.315L109.186 245.131L109.272 245.315C110.179 247.272 118.068 264.04 129.436 275.415C136.198 282.191 140.29 292.942 141.331 301.956C141.626 304.289 141.679 306.646 141.491 308.989Z" fill="white"/>
<path d="M101.15 354.501C98.0874 366.193 85.004 372.59 70.0585 369.704C66.5421 368.975 62.9882 368.44 59.4129 368.101V367.184C63.0464 367.522 66.6579 368.065 70.23 368.811C84.6977 371.6 97.3279 365.484 100.268 354.268C100.403 353.758 100.416 353.223 100.305 352.706C100.194 352.19 99.9634 351.707 99.631 351.296C95.0003 345.009 71.455 342.306 59.4129 341.316V340.386C71.6633 341.365 95.4658 344.055 100.366 350.746C100.784 351.266 101.072 351.877 101.209 352.529C101.345 353.182 101.325 353.857 101.15 354.501Z" fill="white"/>
<path d="M87.5276 353.167C87.5276 354.672 86.6088 356.262 84.759 357.779C80.8756 360.959 73.4764 363.478 65.9179 363.478C63.7357 363.487 61.559 363.261 59.4252 362.805H59.3271L59.4252 362.365L59.5232 361.913C68.7845 363.955 79.3198 361.069 84.171 357.094C85.8003 355.773 86.621 354.427 86.621 353.216C86.6164 353.068 86.5801 352.923 86.5146 352.79C86.4491 352.657 86.3559 352.54 86.2413 352.446C83.3747 349.755 67.9514 350.318 59.4374 350.636V349.718C71.7736 349.266 83.9382 349.058 86.866 351.785C87.0671 351.957 87.2299 352.168 87.3439 352.406C87.4578 352.644 87.5204 352.904 87.5276 353.167Z" fill="white"/>
<path d="M116.243 366.352C111.342 372.957 103.429 373.691 95.7844 374.437C87.2091 375.269 79.0993 376.039 76.637 385.335C73.9541 395.487 78.4868 411.607 85.2123 423.251H84.171C77.5435 411.411 73.1456 395.291 75.8162 385.066C78.4378 375.147 86.8416 374.351 95.7599 373.495C103.196 372.774 110.901 372.04 115.569 365.765C116.612 364.428 117.361 362.886 117.769 361.24C118.176 359.595 118.232 357.882 117.933 356.213C116.194 345.976 102.841 336.827 102.706 336.741L103.22 335.971C103.784 336.362 117.027 345.425 118.84 356.066C119.156 357.867 119.088 359.714 118.641 361.486C118.193 363.259 117.376 364.917 116.243 366.352Z" fill="white"/>
<path d="M124.708 423.288H123.654C120.685 418.062 116.91 413.337 112.469 409.283C107.496 405.039 110.546 398.459 113.241 392.661C115.348 388.111 117.345 383.806 115.495 381.152C115.284 380.781 114.994 380.461 114.644 380.216C114.295 379.971 113.895 379.806 113.474 379.733C111.257 379.501 108.121 382.326 103.784 386.264C98.7456 391.103 93.2246 395.415 87.3071 399.131C83.7055 401.296 82.2967 404.232 83.1297 407.852C84.3547 413.062 89.7327 418.787 95.3801 423.288H93.9958C88.5321 418.774 83.4237 413.173 82.2354 408.06C81.3044 404.012 82.8479 400.721 86.8416 398.336C92.6988 394.66 98.1661 390.398 103.159 385.616C107.679 381.507 110.95 378.547 113.584 378.84C114.134 378.926 114.658 379.133 115.118 379.446C115.578 379.759 115.962 380.171 116.243 380.65C118.399 383.745 116.243 388.27 114.074 393.065C111.391 398.85 108.623 404.819 113.07 408.61C117.636 412.783 121.514 417.65 124.561 423.031L124.708 423.288Z" fill="white"/>
<path d="M117.259 423.288H116.034C112.776 419.276 107.287 412.867 104.445 411.583C101.236 410.139 102.375 404.966 103.367 400.403C103.873 398.594 104.145 396.728 104.176 394.851C104.168 394.685 104.126 394.523 104.053 394.374C103.159 394.459 99.4349 400.403 95.4781 409.149C93.518 413.405 100.06 419.251 105.707 423.288H104.127C98.5162 419.068 92.5747 413.319 94.6328 408.769C95.8578 406.152 101.983 393.114 104.298 393.493C104.776 393.579 105.058 393.994 105.131 394.716C105.122 396.693 104.846 398.659 104.311 400.562C103.392 404.782 102.338 409.564 104.862 410.702C108.047 412.182 114.05 419.288 117.259 423.288Z" fill="white"/>
<path d="M75.0689 423.288H74.1991C74.2359 416.352 72.5525 409.516 69.299 403.388C65.9914 397.505 66.7141 394.447 67.7922 389.811C68.5211 386.963 69.0048 384.058 69.2377 381.127C69.4337 378.608 68.8335 376.847 67.4737 375.868C65.3789 374.376 61.8752 374.939 59.4619 375.599V374.645C62.0222 373.972 65.6729 373.422 68.0372 375.122C69.6787 376.345 70.4138 378.339 70.1933 381.238C69.9623 384.218 69.4704 387.173 68.7232 390.068C67.6574 394.655 67.0082 397.407 70.1443 402.996C73.4233 409.256 75.1142 416.224 75.0689 423.288Z" fill="white"/>
<path d="M67.7922 422.15C67.7501 422.536 67.6721 422.916 67.5594 423.288H66.6039C66.7376 422.89 66.832 422.48 66.8857 422.064C66.9602 421.306 66.8561 420.54 66.5817 419.829C66.3074 419.117 65.8703 418.48 65.3054 417.967C58.9842 411.583 62.2305 392.661 62.9533 388.943C63.3575 386.827 62.549 382.51 60.3562 380.528C60.0792 380.271 59.7654 380.057 59.4252 379.892V378.901C59.9947 379.121 60.5182 379.444 60.9687 379.855C63.4188 382.069 64.3131 386.741 63.8476 389.114C63.1493 392.784 59.9519 411.265 65.9546 417.319C66.6166 417.926 67.1274 418.678 67.4465 419.517C67.7655 420.356 67.8839 421.258 67.7922 422.15Z" fill="white"/>
<path d="M127.292 303.975C123.103 309.552 107.79 320.144 76.1959 326.871V325.941C107.385 319.263 122.441 308.818 126.557 303.424C126.942 302.904 127.207 302.305 127.332 301.671C127.457 301.036 127.439 300.382 127.28 299.755C125.92 293.407 113.805 284.858 108.549 281.934C105.891 280.467 99.4839 283.157 95.2453 285.041C91.5702 286.619 90.3451 287.071 89.9409 286.399C89.5366 285.726 89.9409 285.176 91.6682 283.378C98.7979 275.843 100.341 246.477 100.39 245.388H100.856H101.309C101.309 246.611 99.7902 276.1 92.3297 283.977C91.7862 284.522 91.2941 285.115 90.8597 285.75C92.2329 285.32 93.5754 284.797 94.8778 284.185C99.5452 282.179 105.903 279.439 108.99 281.115C112.665 283.133 126.594 292.123 128.187 299.547C128.372 300.305 128.388 301.095 128.233 301.86C128.079 302.625 127.758 303.347 127.292 303.975Z" fill="white"/>
<path d="M135.953 264.725C135.985 265.152 135.926 265.581 135.78 265.983C135.634 266.386 135.405 266.753 135.108 267.062C134.967 267.208 134.798 267.323 134.61 267.401C134.422 267.479 134.221 267.517 134.018 267.514H133.822C129.767 267.098 119.624 252.568 114.834 245.352H115.936C121.461 253.571 130.637 266.254 133.92 266.597C134.014 266.616 134.111 266.612 134.203 266.584C134.295 266.556 134.379 266.506 134.447 266.438C134.659 266.222 134.822 265.962 134.923 265.677C135.025 265.392 135.063 265.088 135.035 264.787C134.863 260.885 127.684 254.623 127.574 254.561C127.243 254.207 123.495 250.146 119.795 245.352H121.02C124.695 249.975 128.187 253.828 128.26 253.913C128.481 254.121 135.77 260.432 135.953 264.725Z" fill="white"/>
<path d="M189.708 353.84V354.892C184.036 358.035 174.26 361.228 170.892 358.745C170.034 358.121 169.176 356.825 170.022 354.244C170.203 353.745 170.264 353.21 170.2 352.683C170.136 352.157 169.949 351.652 169.654 351.211C166.457 346.318 150.923 344.887 140.645 343.872C138.722 343.688 136.97 343.517 135.451 343.346C134.724 343.214 133.973 343.32 133.311 343.648C132.648 343.976 132.11 344.51 131.776 345.168C127.782 352.201 135.157 376.48 139.935 382.73C143.451 387.329 138.587 407.656 134.104 423.251H133.148C137.595 407.803 142.507 387.598 139.273 383.292C134.251 376.724 126.802 352.165 131.029 344.716C131.448 343.9 132.118 343.24 132.94 342.831C133.762 342.421 134.693 342.285 135.598 342.441C137.105 342.612 138.869 342.783 140.792 342.967C151.818 344.019 167.033 345.413 170.463 350.672C170.836 351.227 171.073 351.861 171.156 352.524C171.239 353.186 171.165 353.859 170.941 354.488C170.402 356.164 170.573 357.302 171.48 357.974C174.395 360.176 184.061 357.155 189.708 353.84Z" fill="white"/>
<path d="M167.915 390.276C165.293 394.789 163.223 398.373 165.171 399.657C168.184 401.675 170.218 415.496 171.137 423.288H170.205C169.176 414.726 167.143 402.079 164.656 400.428C162.169 398.777 164.264 394.753 167.106 389.811C169.268 386.416 171.004 382.768 172.276 378.95C173.035 376.26 171.602 372.725 168.233 368.994C161.961 362.035 149.858 355.418 141.209 356.898C139.396 357.204 138.342 357.791 138.085 358.622C137.35 360.946 142.066 365.545 146.66 369.997C151.254 374.449 156.007 379.134 157.098 382.913C158.433 387.585 156.424 391.206 154.647 394.398C152.871 397.59 151.45 400.171 153.912 402.862C157.147 406.421 157.343 416.071 156.975 423.288H156.032C156.399 416.218 156.24 406.776 153.226 403.473C150.213 400.171 152.001 397.223 153.839 393.958C155.53 390.912 157.428 387.475 156.203 383.17C155.174 379.623 150.507 375.061 145.999 370.658C140.817 365.582 136.333 361.215 137.227 358.353C137.607 357.13 138.869 356.372 141.074 355.993C150.029 354.488 162.512 361.24 168.944 368.383C172.521 372.358 174.028 376.198 173.182 379.207C171.888 383.099 170.119 386.816 167.915 390.276Z" fill="white"/>
<path d="M189.708 370.535V371.514C189.034 371.719 188.327 371.789 187.626 371.722C185.984 371.587 184.134 372.737 182.725 374.841C181.503 376.594 180.748 378.629 180.534 380.755C180.32 382.88 180.652 385.025 181.5 386.986C183.779 391.671 182.309 394.386 180.447 397.823C179.023 400.243 177.955 402.854 177.274 405.577C175.865 411.693 182.823 419.313 187.013 423.288H185.678C181.329 419.043 174.959 411.595 176.404 405.369C177.107 402.567 178.204 399.878 179.663 397.382C181.464 394.056 182.774 391.646 180.704 387.39C179.772 385.287 179.396 382.982 179.61 380.693C179.825 378.404 180.623 376.208 181.929 374.315C183.571 371.942 185.739 370.645 187.711 370.817C188.39 370.872 189.072 370.776 189.708 370.535Z" fill="white"/>
<path d="M204.47 334.05L204.102 334.307L203.723 334.576L203.527 334.307C202.106 332.35 193.028 320.242 184.367 316.291C179.467 314.09 179.32 312.145 179.075 309.894C178.83 307.644 178.56 305.002 172.692 301.027C167.915 297.798 160.062 301.822 154.782 306.237C149 311.13 145.705 316.597 146.942 319.361C147.763 321.196 150.617 321.807 155.187 321.159C171.112 318.86 186.535 327.947 195.049 334.307H193.493C184.918 328.094 170.389 319.899 155.321 322.076C150.225 322.81 147.126 322.076 146.109 319.753C144.443 316.083 149.135 309.784 154.194 305.552C159.719 300.917 168.013 296.771 173.207 300.281C179.43 304.476 179.736 307.436 179.994 309.809C180.214 311.864 180.386 313.478 184.747 315.472C194.363 319.85 204.053 333.451 204.47 334.05Z" fill="white"/>
<path d="M206.503 325.721V327.336L185.812 299.596V299.425C185.812 299.253 187.601 282.742 187.221 275.856C187.237 275.62 187.192 275.384 187.092 275.17C186.991 274.956 186.837 274.771 186.646 274.632C185.09 273.678 180.361 275.721 175.351 277.886C169.14 280.577 161.397 283.891 155.248 283.708C154.218 283.766 153.192 283.546 152.278 283.07C151.364 282.595 150.595 281.881 150.054 281.005C146.476 274.743 154.513 260.065 154.856 259.442C156.538 257.394 158.027 255.195 159.303 252.874C160.629 250.551 161.549 248.02 162.022 245.388H162.953C162.542 248.028 161.667 250.574 160.368 252.91C159.033 255.439 157.436 257.82 155.603 260.016C155.603 260.078 147.567 274.779 150.85 280.552C151.315 281.29 151.972 281.888 152.751 282.282C153.53 282.676 154.401 282.852 155.272 282.791C161.238 282.998 168.846 279.696 174.971 277.054C180.667 274.608 185.151 272.651 187.123 273.85C187.439 274.066 187.695 274.357 187.871 274.696C188.046 275.035 188.134 275.413 188.128 275.794C188.483 282.362 186.903 297.504 186.731 299.327L206.503 325.721Z" fill="white"/>
<path d="M206.503 290.777V291.719C194.167 289.077 195.209 280.43 196.14 272.761C196.654 268.48 197.132 264.42 195.527 261.46C194.694 259.906 193.788 259.014 192.771 258.842C190.676 258.426 187.871 260.677 184.428 263.515C180.311 267.16 175.669 270.17 170.659 272.443C164.534 274.889 162.953 274.889 162.378 274.107C161.569 272.957 163.517 270.694 167.339 266.45C168.258 265.423 169.213 264.346 170.132 263.294C174.064 258.696 177.678 250.354 179.626 245.339H180.618C178.695 250.342 174.995 259.026 170.818 263.881C169.899 264.958 168.931 266.022 168.013 267.062C166.016 269.275 162.696 272.969 163.113 273.581C163.113 273.654 163.823 274.253 170.279 271.587C175.853 269.3 180.275 265.692 183.828 262.805C187.381 259.919 190.406 257.448 192.918 257.913C193.68 258.134 194.381 258.525 194.969 259.057C195.557 259.589 196.016 260.248 196.311 260.983C198.063 264.212 197.536 268.395 197.022 272.835C196.066 280.785 195.16 288.294 206.503 290.777Z" fill="white"/>
<path d="M292.097 215.875L320.665 214.542L320.15 219.605L291.974 220.523L291.864 224.461L316.365 223.727L316.61 229.023L291.717 229.733L290.676 229.769L287.234 229.671L262.488 228.999L201.162 218.395L163.002 143.235L198.859 130.54L221.51 193.823L259.425 201.638L277.237 200.562L294.988 184.503L299.325 186.08L284.159 200.219L290.431 200.513L319.195 200.109L319.403 204.72L292.391 204.928L292.317 207.729L320.506 207.717L321.265 212.083L292.183 212.511L292.097 215.875Z" fill="#FB9159"/>
<path d="M210.305 150.505L170.688 167.067L153.271 125.538C152.241 123.082 151.706 120.447 151.695 117.784C151.685 115.121 152.2 112.482 153.212 110.018C154.223 107.553 155.71 105.312 157.589 103.422C159.468 101.531 161.701 100.029 164.162 99.0006L166.297 98.1078C168.758 97.0773 171.398 96.5411 174.066 96.5297C176.734 96.5182 179.379 97.0318 181.848 98.0411C184.318 99.0504 186.564 100.536 188.458 102.412C190.352 104.288 191.858 106.519 192.888 108.976L210.305 150.505Z" fill="#FE4877"/>
<path d="M298.271 225.843V225.904L297.23 225.88L298.271 225.843Z" fill="#FFCB39"/>
<path d="M314.503 314.823C318.827 328.07 311.636 344.496 311.636 344.496L264.472 349.07C268.147 334.919 266.481 320.315 260.319 310.971C254.157 301.626 256.644 303.877 256.644 278.779C256.644 270.67 253.79 265.08 249.943 261.24C241.883 253.192 229.448 252.764 229.448 252.764C215.299 249.094 203.551 256.739 184.489 244.092C169.789 234.307 182.125 195.168 182.125 195.168C182.125 195.168 202.485 193.651 255.187 198.189C259.304 198.543 263.395 199.152 267.437 200.011H267.608C283.803 203.986 294.719 211.239 302.008 219.813C302.059 219.856 302.104 219.905 302.142 219.96C321.314 242.649 315.275 274.4 314.393 278.669C313.339 284.711 310.191 301.651 314.503 314.823Z" fill="#161730"/>
<path d="M203.821 261.888L210.877 368.896L243.218 369.704L249.968 263.038L203.821 261.888Z" fill="#FB9159"/>
<path d="M253.631 318.456C257.955 331.69 250.764 348.128 250.764 348.128L242.091 348.972L207.496 352.311L203.6 352.69C205.51 345.47 206.001 337.948 205.046 330.54C205.046 330.222 204.96 329.904 204.911 329.598C204.651 327.907 204.291 326.233 203.833 324.584C202.904 321.048 201.424 317.68 199.447 314.603C193.984 306.335 195.356 307.142 195.711 290.056C195.711 289.628 195.711 289.175 195.711 288.723C195.711 286.839 195.711 284.747 195.711 282.411C195.743 279.532 195.33 276.664 194.486 273.911C194.282 273.241 194.041 272.584 193.763 271.942C192.68 269.334 191.099 266.962 189.108 264.958C182.615 261.292 175.706 258.418 168.527 256.396C154.39 252.727 142.63 260.359 123.568 247.724C108.868 237.94 121.204 198.801 121.204 198.801C121.204 198.801 141.576 197.272 194.278 201.822C198.416 202.167 202.528 202.776 206.589 203.644C222.6 207.533 233.54 214.652 240.78 223.055C241.074 223.373 241.344 223.703 241.613 224.021C241.718 224.142 241.816 224.268 241.907 224.4C258.482 244.813 255.26 272.101 253.863 280.32C253.716 281.2 253.594 281.861 253.508 282.277C252.467 288.331 249.38 305.222 253.631 318.456Z" fill="#FE4877"/>
<path d="M151.573 88.5873C150.911 88.783 150.348 89.0032 149.686 89.2478C137.301 94.2503 130.833 114.749 127.207 128.546C125.161 136.337 120.971 201.283 120.971 201.283C120.971 201.283 220.947 201.283 220.959 201.283C223.678 210.799 214.331 150.977 213.682 148.152C208.512 125.708 199.116 96.7821 178.928 89.6392C171.541 87.034 159.572 86.2023 151.573 88.5873Z" fill="#161730"/>
<path d="M210.607 421.869L294.02 421.759C294.167 411.974 282.774 408.402 273.048 407.448L244.21 399.572L244.48 363.686L210.718 366.01L210.607 421.869Z" fill="#161730"/>
<path d="M278.671 408.305C278.671 408.305 270.536 420.462 272.643 421.759C274.75 423.055 294.02 421.759 294.02 421.759C294.02 421.759 295.601 411.729 278.671 408.305Z" fill="#FE4877"/>
<path d="M209.836 377.055C209.836 377.055 226.239 384.112 224.034 391.83C221.829 399.547 219.391 413.356 226.08 415.068C232.768 416.781 229.926 421.82 229.926 421.82H210.607L209.836 377.055Z" fill="#FE4877"/>
<path d="M236.762 408.928L236.174 408.158L245.533 401.15L246.109 401.92L236.762 408.928Z" fill="#FFCB39"/>
<path d="M255.575 405.07L247.269 412.548L247.909 413.257L256.215 405.779L255.575 405.07Z" fill="#FFCB39"/>
<path d="M266.096 405.37L259.462 413.079L260.187 413.701L266.821 405.992L266.096 405.37Z" fill="#FFCB39"/>
<path d="M210.019 421.367L293.996 420.976C293.996 420.976 294.817 430.541 289.916 428.143C285.016 425.746 283.595 428.351 281.145 428.571C278.695 428.791 277.249 428.804 272.166 426.81C267.082 424.816 268.711 429.256 264.815 428.743C260.92 428.229 257.649 427.519 254.488 424.988C251.328 422.456 249.38 429.171 245.705 428.853C242.03 428.535 243.843 425.514 239.347 424.119C234.851 422.725 236.517 429.44 233.05 428.926C229.583 428.412 230.784 422.945 225.479 423.569C220.175 424.193 221.804 429.574 217.762 429.024C213.719 428.473 210.938 430.382 210.019 421.367Z" fill="#6562BE"/>
<path d="M411.146 182.166V192.624H385.384V429.623H378.977V192.624H284.808V429.794H278.401V192.624H247.542V182.166H411.146Z" fill="#161730"/>
<path d="M416.867 73.2986L383.509 172.7L383.203 172.602V172.871H296.164V162.218H375.975L406.932 69.9718L416.867 73.2986Z" fill="#161730"/>
<path d="M192.085 49.3015V68.9566C192.085 72.4081 190.711 75.7182 188.267 78.1587C185.823 80.5993 182.507 81.9704 179.05 81.9704L178.303 82.0805V90.3119C178.303 91.535 178.793 92.9905 178.058 94.128C177.237 95.1099 176.172 95.8604 174.971 96.3051C171.81 97.6872 164.742 97.6382 164.742 92.6358V76.3441L163.113 49.3015H192.085Z" fill="#FB9159"/>
<path d="M191.386 55.1357C193.261 55.1357 197.512 67.2688 197.512 67.2688H191.386V55.1357Z" fill="#FF534A"/>
<path d="M179.712 70.5467C182.296 70.5467 184.391 68.4548 184.391 65.8744C184.391 63.294 182.296 61.2022 179.712 61.2022C177.127 61.2022 175.032 63.294 175.032 65.8744C175.032 68.4548 177.127 70.5467 179.712 70.5467Z" fill="#FF534A"/>
<path d="M182.713 56.6156C182.747 56.5508 182.793 56.4928 182.848 56.4444C183.114 56.2372 183.432 56.1061 183.767 56.0652C185.237 55.7472 188.985 54.8421 189.524 57.007C189.953 58.7193 187.528 58.4625 186.254 58.4013C184.979 58.3402 181.819 58.2546 182.713 56.6156Z" fill="white"/>
<path d="M187.099 55.6127C187.099 55.6127 185.617 56.6278 187.099 58.4502C187.099 58.4502 189.99 58.8661 189.549 57.007C189.484 56.7524 189.368 56.5135 189.209 56.3045C189.049 56.0955 188.849 55.9207 188.62 55.7906C188.392 55.6605 188.139 55.5777 187.878 55.5471C187.616 55.5165 187.351 55.5388 187.099 55.6127Z" fill="#0C0604"/>
<path d="M181.574 56.0652C181.574 56.0652 189.524 55.1357 189.524 54.6709C189.524 54.2061 189.99 52.3348 188.581 52.3348C187.172 52.3348 180.177 54.6709 180.643 55.1357C181.108 55.6004 180.643 55.6004 181.574 56.0652Z" fill="#161730"/>
<path d="M189.647 73.5555C190.403 73.5508 191.149 73.3752 191.827 73.0418L191.423 72.2223C191.313 72.2223 188.973 73.4454 187.552 71.6597L186.817 72.2223C187.152 72.6497 187.582 72.9929 188.073 73.2245C188.565 73.456 189.104 73.5693 189.647 73.5555Z" fill="#0C0604"/>
<path d="M176.294 55.6127C176.294 55.6127 176.061 69.0667 173.721 66.0334C171.382 63.0002 170.169 54.3896 170.169 54.3896L164.717 55.5515L165.587 69.9718C165.587 69.9718 151.793 58.0589 157.918 45.8279C164.044 33.5969 175.069 32.3738 182.419 34.82C189.769 37.2662 199.57 43.3817 199.57 51.9434C199.57 60.5051 175.069 50.7203 175.069 50.7203L176.294 55.6127Z" fill="#6562BE"/>
<path d="M167.792 65.0427C170.762 65.0427 173.17 62.6388 173.17 59.6733C173.17 56.7079 170.762 54.304 167.792 54.304C164.822 54.304 162.414 56.7079 162.414 59.6733C162.414 62.6388 164.822 65.0427 167.792 65.0427Z" fill="#FB9159"/>
<path d="M169.875 64.052L168.956 63.9542C169.056 63.5058 169.053 63.0405 168.947 62.5934C168.841 62.1464 168.635 61.7292 168.343 61.3735C168.048 61.1259 167.707 60.939 167.339 60.8236C166.971 60.7081 166.584 60.6664 166.2 60.7007L166.089 59.7957C167.058 59.6941 168.029 59.9605 168.809 60.5417C169.024 60.0384 169.055 59.4753 168.895 58.9517C168.869 58.8706 168.826 58.7959 168.769 58.7327C168.712 58.6694 168.642 58.619 168.564 58.5848L168.858 57.7042C169.243 57.8626 169.551 58.1656 169.715 58.5481C169.866 59.0109 169.923 59.4991 169.883 59.9841C169.843 60.4692 169.707 60.9415 169.483 61.3735C169.89 62.2036 170.027 63.1402 169.875 64.052Z" fill="#0C0604"/>
<path d="M169.911 49.8763C169.911 49.8763 169.911 68.2228 173.587 66.9997C177.262 65.7766 178.487 65.7766 177.262 48.6532C176.037 31.5299 169.911 49.8763 169.911 49.8763Z" fill="#6562BE"/>
<path d="M337.056 159.967L313.731 167.269L308.794 168.822L287.515 175.476L284.636 176.381L228.089 193.933L159.829 144.385L185.96 116.767L234.998 162.805L272.472 152.494L290.051 144.801L301.187 123.629L305.805 123.617L296.434 142.098L302.436 140.226L302.51 140.202L329.301 129.965L331.078 134.209L305.805 143.688L306.699 146.354L333.148 136.643L335.365 140.508L308.218 150.88L309.284 154.072L335.647 143.003L336.909 147.944L310.779 158.487L312.065 162.316L334.863 154.537L337.056 159.967Z" fill="#FB9159"/>
<path d="M205.218 129.401L177.507 162.164L143.055 133.116C138.945 129.642 136.385 124.681 135.937 119.324C135.489 113.966 137.191 108.65 140.668 104.545L142.161 102.779C145.637 98.6696 150.605 96.1072 155.973 95.6553C161.341 95.2033 166.669 96.8989 170.784 100.369L205.218 129.401Z" fill="#FE4877"/>
</svg>
