<svg width="204" height="114" viewBox="0 0 204 114" fill="none" xmlns="http://www.w3.org/2000/svg">
<mask id="mask0_20_1442" style="mask-type:alpha" maskUnits="userSpaceOnUse" x="0" y="0" width="204" height="114">
<rect width="204" height="114" fill="#D9D9D9"/>
</mask>
<g mask="url(#mask0_20_1442)">
<path fill-rule="evenodd" clip-rule="evenodd" d="M164.846 90.6139C147.885 101.414 127.001 93.3879 107.084 96.1447C80.5077 99.8232 53.8011 122.923 30.763 109.173C6.39146 94.627 -2.22976 61.0457 1.03562 32.852C4.05456 6.78609 20.9501 15.501 44.2988 3.52663C63.0404 -6.08498 86.5809 10.8156 107.084 15.6394C120.946 18.9009 152.353 16.928 164.846 23.7639C186.851 35.8048 197.563 30.844 202.8 55.3756C207.951 79.5049 185.657 77.3614 164.846 90.6139Z" fill="url(#paint0_linear_20_1442)"/>
<path d="M45.9678 44.5698C44.5213 44.5698 43.2263 44.8316 42.0829 45.3551C40.9532 45.8786 39.9957 46.6363 39.2105 47.6282C38.4252 48.6063 37.8259 49.798 37.4126 51.2032C36.9994 52.5946 36.7927 54.1652 36.7927 55.9148C36.7927 58.2568 37.1233 60.275 37.7846 61.9695C38.4459 63.6503 39.4516 64.9452 40.8017 65.8545C42.1518 66.75 43.86 67.1977 45.9265 67.1977C47.2077 67.1977 48.4545 67.0737 49.6668 66.8257C50.8791 66.5778 52.1328 66.2402 53.4278 65.8132V70.0288C52.2017 70.5109 50.9618 70.8622 49.7081 71.0827C48.4545 71.3031 47.008 71.4133 45.3686 71.4133C42.2826 71.4133 39.7202 70.7727 37.6813 69.4915C35.6561 68.2103 34.1407 66.4055 33.1351 64.0773C32.1431 61.7491 31.6472 59.0214 31.6472 55.8941C31.6472 53.6072 31.9641 51.5132 32.5978 49.612C33.2315 47.7109 34.1545 46.0715 35.3668 44.6938C36.5792 43.3024 38.0739 42.2347 39.8511 41.4908C41.642 40.7331 43.6878 40.3542 45.9885 40.3542C47.5039 40.3542 48.9918 40.5264 50.4521 40.8709C51.9262 41.2015 53.29 41.6768 54.5437 42.2967L52.8079 46.3883C51.7608 45.8924 50.6656 45.4653 49.5222 45.1071C48.3787 44.7489 47.1939 44.5698 45.9678 44.5698ZM71.0769 47.6902C71.4627 47.6902 71.8829 47.7109 72.3375 47.7522C72.7921 47.7935 73.1847 47.8486 73.5154 47.9175L73.0608 52.4638C72.7714 52.3811 72.4133 52.3191 71.9862 52.2778C71.5729 52.2364 71.2009 52.2158 70.8703 52.2158C70.0024 52.2158 69.1758 52.3604 68.3905 52.6497C67.6053 52.9253 66.9096 53.3523 66.3034 53.931C65.6972 54.4958 65.2219 55.2053 64.8775 56.0594C64.5331 56.9136 64.3609 57.9055 64.3609 59.0351V71H59.484V48.1242H63.2863L63.9476 52.1538H64.1749C64.6296 51.341 65.1944 50.597 65.8694 49.922C66.5445 49.247 67.316 48.7097 68.1839 48.3102C69.0656 47.8969 70.0299 47.6902 71.0769 47.6902ZM86.9283 47.6902C88.9672 47.6902 90.7168 48.1104 92.1771 48.9508C93.6374 49.7911 94.7602 50.9828 95.5454 52.5258C96.3307 54.0687 96.7233 55.9148 96.7233 58.0639V60.6676H81.4521C81.5072 62.8857 82.0996 64.5939 83.2293 65.7925C84.3727 66.991 85.9708 67.5903 88.0235 67.5903C89.4838 67.5903 90.7926 67.4526 91.9498 67.177C93.1208 66.8877 94.3262 66.4675 95.5661 65.9165V69.8634C94.4227 70.4007 93.2585 70.7934 92.0738 71.0413C90.889 71.2893 89.47 71.4133 87.8168 71.4133C85.5713 71.4133 83.5944 70.9793 81.8861 70.1114C80.1916 69.2297 78.8621 67.921 77.8978 66.1851C76.9472 64.4493 76.4719 62.2933 76.4719 59.7171C76.4719 57.1546 76.9059 54.978 77.7738 53.187C78.6417 51.3961 79.8609 50.0322 81.4314 49.0954C83.002 48.1586 84.8342 47.6902 86.9283 47.6902ZM86.9283 51.3479C85.3991 51.3479 84.1592 51.8438 83.2086 52.8357C82.2718 53.8276 81.7208 55.281 81.5554 57.196H91.9704C91.9567 56.0525 91.7638 55.04 91.3918 54.1583C91.0336 53.2766 90.4826 52.5877 89.7387 52.0918C89.0085 51.5958 88.0717 51.3479 86.9283 51.3479ZM120.965 70.9793L118.071 60.337C117.934 59.8135 117.768 59.1798 117.576 58.4359C117.383 57.6919 117.19 56.9273 116.997 56.1421C116.804 55.343 116.625 54.606 116.46 53.931C116.308 53.2559 116.191 52.7324 116.108 52.3604H115.943C115.874 52.7324 115.764 53.2559 115.612 53.931C115.461 54.606 115.289 55.343 115.096 56.1421C114.903 56.9411 114.71 57.7195 114.517 58.4772C114.338 59.2349 114.173 59.8824 114.021 60.4197L110.983 70.9793H105.652L99.2459 48.1035H104.164L107.14 59.4691C107.333 60.2406 107.519 61.0741 107.698 61.9695C107.891 62.865 108.056 63.7191 108.194 64.5319C108.331 65.3448 108.435 66.0129 108.504 66.5364H108.669C108.724 66.1645 108.8 65.6961 108.896 65.1312C108.993 64.5526 109.103 63.9533 109.227 63.3334C109.351 62.6997 109.475 62.1073 109.599 61.5562C109.723 60.9914 109.84 60.5368 109.95 60.1924L113.463 48.1035H118.774L122.142 60.1924C122.294 60.7159 122.459 61.3771 122.638 62.1762C122.817 62.9614 122.976 63.7536 123.114 64.5526C123.265 65.3379 123.362 65.9923 123.403 66.5158H123.568C123.623 66.0474 123.72 65.4136 123.858 64.6146C124.009 63.8018 124.181 62.9408 124.374 62.0315C124.567 61.1085 124.767 60.2544 124.973 59.4691L128.011 48.1035H132.847L126.399 70.9793H120.965ZM147.272 54.2409H155.538V57.9192H147.272V66.2678H143.594V57.9192H135.349V54.2409H143.594V45.8097H147.272V54.2409Z" fill="white"/>
</g>
<defs>
<linearGradient id="paint0_linear_20_1442" x1="185.008" y1="81.5696" x2="63.9999" y2="44.5" gradientUnits="userSpaceOnUse">
<stop stop-color="#94B6C2"/>
<stop offset="1" stop-color="#283740"/>
</linearGradient>
</defs>
</svg>
