<svg width="487" height="535" viewBox="0 0 487 535" fill="none" xmlns="http://www.w3.org/2000/svg">
<mask id="mask0_20_2177" style="mask-type:alpha" maskUnits="userSpaceOnUse" x="0" y="0" width="487" height="535">
<rect width="487" height="535" fill="#D9D9D9"/>
</mask>
<g mask="url(#mask0_20_2177)">
<path d="M28.2092 220.698C-49.7144 348.028 163.36 684.736 365.831 452.973C418.676 384.37 510.85 212.578 456.789 74.2401C389.214 -98.682 107.226 91.5813 28.2092 220.698Z" fill="#94B6C2" fill-opacity="0.5"/>
</g>
<path d="M290.242 111.436L290.252 111.447L272.5 125.359L272.49 125.349L261.658 135.553L242.855 153.266L221.366 173.49L209.804 184.385L192.082 160.574L203.653 151.579L224.15 135.644L242.972 121.02L256.51 110.501L259.809 107.93L267.819 100.42L270.778 81.6899L274.106 80.5212L271.77 96.802L271.751 96.8935L272.666 96.1211L291.332 80.3891L293.6 83.3261L278.524 95.1353L280.549 97.9504L297.415 83.9969L299.031 85.5111L282.155 100.186L284.228 103.072L300.403 88.001L301.512 91.4767L286.33 105.999L287.926 108.215L303.449 96.1211L306.223 99.4545L290.242 111.436Z" fill="#FFCB39"/>
<path d="M162.018 165.37L137.882 181.946L94.7094 110.186L94.651 110.237L82.1449 91.8222L70.3201 77.7163L73.2398 74.6674L85.4053 89.1799L87.1182 87.7876L75.1863 69.586L78.106 66.5372L89.9211 85.5111L92.6462 83.2956L80.0525 64.5046L81.999 62.4721L95.3712 81.0903L97.4929 79.3626L84.9187 62.4721L87.8384 60.4395L103.546 82.6249L105.357 66.5372L108.276 68.5697L106.379 87.8282L110.69 95.5824L162.018 165.37Z" fill="#FFCB39"/>
<path d="M223.887 176.61L206.31 192.098L197.736 199.67C194.612 202.423 190.568 203.767 186.494 203.407C182.42 203.047 178.65 201.011 176.014 197.749L174.885 196.347C173.336 194.443 172.237 192.188 171.673 189.761C170.744 185.73 171.332 181.481 173.318 177.891C174.214 176.295 175.362 174.869 176.714 173.673L189.902 162.067L202.865 150.634L203.653 151.651L221.366 173.562L223.887 176.61Z" fill="#FE4877"/>
<path d="M197.814 299.265L246.534 398.058L272.753 392.763L233.824 283.005L197.814 299.265Z" fill="#FFCB39"/>
<path d="M132.607 327.721L106.33 377.519L123.031 398.058L166.301 341.573L176.218 287.913L140.16 282.263L132.607 327.721Z" fill="#FFCB39"/>
<path d="M242.028 297.324L240.792 297.802L239.284 298.391L204.13 312.07L196.052 315.211L181.678 271.114V270.962V271.063L177.181 318.036L170.904 317.02L135.42 311.206L132.5 310.719C132.5 310.719 129.035 270.972 139.673 246.581C140.378 244.938 141.174 243.34 142.057 241.795L209.493 232.191C209.493 232.191 211.216 234.823 213.872 239.132C221.658 251.815 237.668 279.061 241.872 296.663C241.931 296.887 241.979 297.1 242.028 297.324Z" fill="#FE4877"/>
<path d="M214.573 239.071L213.872 239.132L196.257 240.9L184.753 242.059L156.529 244.884C153.785 245.148 151.254 245.402 149.016 245.636L139.595 246.571H139.108C139.108 246.571 141.824 202.515 143.459 190.97C143.595 190.025 143.722 189.314 143.838 188.846C144.987 184.118 146.403 179.465 148.082 174.913C150.456 168.694 153.59 162.83 157.814 159.537C158.426 159.046 159.077 158.61 159.761 158.236C160.144 158.023 160.537 157.829 160.938 157.657C161.406 157.458 161.884 157.285 162.369 157.138C164.432 156.542 166.555 156.201 168.695 156.122C172.319 155.919 175.954 156.206 179.507 156.976C180.735 157.229 181.944 157.569 183.128 157.992C185.603 158.935 187.906 160.309 189.941 162.057C197.824 168.643 202.904 180.411 206.349 192.119C207.595 196.326 208.617 200.534 209.483 204.477C209.941 206.692 215.653 238.949 214.573 239.071Z" fill="#161730"/>
<path d="M233.824 374.47L263.021 364.307L280.597 412.235L255.235 422.235L233.824 374.47Z" fill="#6562BE"/>
<path d="M262.048 442.561L327.254 412.072C323.955 404.033 313.795 405.243 305.843 408.007L280.539 412.072L274.262 394.795L247.741 405.182L262.048 442.561Z" fill="#161730"/>
<path d="M262.048 442.561C262.048 442.561 267.887 453.74 271.78 448.658C275.673 443.577 276.646 439.512 280.539 439.512C284.432 439.512 294.164 439.512 295.138 434.43C295.392 433.229 295.871 432.091 296.547 431.083C297.223 430.075 298.083 429.215 299.077 428.555C300.072 427.894 301.181 427.444 302.342 427.232C303.503 427.019 304.693 427.048 305.843 427.316C310.709 428.333 315.576 428.333 316.549 422.235C317.522 416.137 326.281 419.186 327.254 418.17C328.228 417.154 327.254 412.072 327.254 412.072L262.048 442.561Z" fill="#FE4877"/>
<path d="M310.544 406.655C310.544 406.655 308.432 419.572 310.544 419.867C312.656 420.162 327.254 412.072 327.254 412.072C327.254 412.072 324.977 403.271 310.544 406.655Z" fill="#FFCB39"/>
<path d="M247.449 405.974C247.449 405.974 261.074 405.974 262.048 413.088C263.021 420.202 265.941 432.398 271.78 431.381C277.619 430.365 277.152 435.497 277.152 435.497L262.048 442.56L247.449 405.974Z" fill="#FFCB39"/>
<path d="M282.162 412.872L277.302 422.028L277.94 422.397L282.8 413.242L282.162 412.872Z" fill="#FFCB39"/>
<path d="M291.391 412.4L287.498 421.548L288.165 421.857L292.058 412.709L291.391 412.4Z" fill="#FFCB39"/>
<path d="M299.712 408.815L297.214 417.539L297.914 417.758L300.411 409.033L299.712 408.815Z" fill="#FFCB39"/>
<path d="M222.281 327.335L219.361 318.188L220.062 317.944L222.982 327.091L222.281 327.335Z" fill="#161730"/>
<path d="M230.755 317.999L230.044 318.17L232.963 331.38L233.674 331.209L230.755 317.999Z" fill="#161730"/>
<path d="M235.564 349.297L235.003 349.785L239.87 355.882L240.431 355.394L235.564 349.297Z" fill="#161730"/>
<path d="M254.135 352.62H253.405V357.701H254.135V352.62Z" fill="#161730"/>
<path d="M240.443 317.855L239.836 318.278L243.728 324.375L244.335 323.952L240.443 317.855Z" fill="#161730"/>
<path d="M225.857 340.221L225.249 340.644L227.198 343.697L227.805 343.274L225.857 340.221Z" fill="#161730"/>
<path d="M235.589 360.509L234.995 360.952L239.86 368.064L240.454 367.621L235.589 360.509Z" fill="#161730"/>
<path d="M131.84 341.191L125.025 349.319L125.574 349.821L132.389 341.693L131.84 341.191Z" fill="#161730"/>
<path d="M141.24 321.115H140.51V327.213H141.24V321.115Z" fill="#161730"/>
<path d="M159.997 327.128L158.052 335.262L158.76 335.447L160.705 327.312L159.997 327.128Z" fill="#161730"/>
<path d="M154.17 346.38L151.248 354.505L151.932 354.773L154.853 346.648L154.17 346.38Z" fill="#161730"/>
<path d="M145.459 341.214L136.701 352.391L137.266 352.873L146.024 341.696L145.459 341.214Z" fill="#161730"/>
<path d="M123.068 356.459L120.15 360.526L120.735 360.983L123.652 356.916L123.068 356.459Z" fill="#161730"/>
<path d="M142.68 358.359L134.898 362.423L135.225 363.105L143.006 359.041L142.68 358.359Z" fill="#161730"/>
<path d="M149.639 288.594C156.626 288.594 162.291 282.679 162.291 275.383C162.291 268.086 156.626 262.171 149.639 262.171C142.651 262.171 136.987 268.086 136.987 275.383C136.987 282.679 142.651 288.594 149.639 288.594Z" fill="#161730"/>
<path d="M165.697 310.444C168.922 310.444 171.537 307.714 171.537 304.346C171.537 300.979 168.922 298.249 165.697 298.249C162.472 298.249 159.858 300.979 159.858 304.346C159.858 307.714 162.472 310.444 165.697 310.444Z" fill="#161730"/>
<path d="M191.975 274.874C201.112 274.874 208.52 267.139 208.52 257.598C208.52 248.056 201.112 240.321 191.975 240.321C182.837 240.321 175.43 248.056 175.43 257.598C175.43 267.139 182.837 274.874 191.975 274.874Z" fill="#161730"/>
<path d="M200.734 297.233C203.421 297.233 205.6 294.958 205.6 292.151C205.6 289.345 203.421 287.07 200.734 287.07C198.046 287.07 195.868 289.345 195.868 292.151C195.868 294.958 198.046 297.233 200.734 297.233Z" fill="#161730"/>
<path d="M227.011 292.151C228.624 292.151 229.931 290.786 229.931 289.102C229.931 287.418 228.624 286.053 227.011 286.053C225.399 286.053 224.091 287.418 224.091 289.102C224.091 290.786 225.399 292.151 227.011 292.151Z" fill="#161730"/>
<path d="M153.045 253.533C155.733 253.533 157.911 251.258 157.911 248.451C157.911 245.645 155.733 243.37 153.045 243.37C150.358 243.37 148.179 245.645 148.179 248.451C148.179 251.258 150.358 253.533 153.045 253.533Z" fill="#161730"/>
<path d="M174.456 277.923C174.994 277.923 175.43 277.468 175.43 276.907C175.43 276.346 174.994 275.891 174.456 275.891C173.919 275.891 173.483 276.346 173.483 276.907C173.483 277.468 173.919 277.923 174.456 277.923Z" fill="#161730"/>
<path d="M216.306 271.826C218.456 271.826 220.198 270.006 220.198 267.76C220.198 265.515 218.456 263.695 216.306 263.695C214.156 263.695 212.413 265.515 212.413 267.76C212.413 270.006 214.156 271.826 216.306 271.826Z" fill="#161730"/>
<path d="M116.062 355.16L138.466 379.145L107.089 418.647L86.3007 400.466L116.062 355.16Z" fill="#6562BE"/>
<path d="M98.544 381.584L74.6997 417.662L89.2982 450.183L140.88 449.166C140.88 449.166 136.014 435.955 123.362 436.971C110.709 437.987 105.843 437.987 105.843 437.987L107.79 418.678L118.982 403.942L98.544 381.584Z" fill="#161730"/>
<path d="M74.2131 417.153C74.2131 417.153 67.4004 424.267 72.2666 426.3C77.1328 428.333 70.3201 431.381 73.2398 433.414C76.1595 435.446 79.0792 433.414 78.106 436.463C77.1328 439.512 76.1595 444.593 79.0792 444.593C81.9989 444.593 81.9989 446.626 81.9989 450.691C81.9989 454.756 83.9454 458.821 89.7848 455.772C95.6243 452.723 91.7313 455.772 96.5975 456.788C101.464 457.805 101.464 454.756 105.357 453.74C109.25 452.723 106.33 458.821 112.169 456.788C118.009 454.756 118.982 451.707 120.928 452.723C122.875 453.74 120.928 455.772 126.768 454.756C132.607 453.74 130.661 450.691 133.58 451.707C136.5 452.723 136.5 456.788 139.42 454.756C142.34 452.723 140.393 448.658 140.393 448.658H88.8116L74.2131 417.153Z" fill="#FE4877"/>
<path d="M81.3274 431.9C81.3274 431.9 96.5975 421.219 93.6778 414.105C90.7581 406.991 95.6243 400.893 96.5975 396.828C97.5707 392.763 97.5707 386.248 93.6778 388.698L74.2131 417.153L81.3274 431.9Z" fill="#FFCB39"/>
<path d="M120.442 448.658H140.393C139.363 445.305 137.355 442.372 134.651 440.27C131.946 438.167 128.679 436.999 125.308 436.93C125.308 436.93 118.982 444.593 120.442 448.658Z" fill="#FFCB39"/>
<path d="M107.373 422.371L99.5133 422.865L99.5571 423.625L107.416 423.132L107.373 422.371Z" fill="#FFCB39"/>
<path d="M106.747 428.558L98.0512 429.474L98.1245 430.233L106.82 429.317L106.747 428.558Z" fill="#FFCB39"/>
<path d="M105.821 434.555L98.0372 435.569L98.1276 436.325L105.912 435.312L105.821 434.555Z" fill="#FFCB39"/>
<path d="M117.224 365.605L107.501 379.834L108.095 380.277L117.818 366.048L117.224 365.605Z" fill="#FFCB39"/>
<path d="M122.117 372.68L113.36 382.84L113.903 383.35L122.66 373.19L122.117 372.68Z" fill="#FFCB39"/>
<path d="M127.968 376.723L117.272 388.929L117.81 389.444L128.506 377.238L127.968 376.723Z" fill="#FFCB39"/>
<path d="M249.551 396.482L241.765 379.206L242.427 378.88L250.213 396.157L249.551 396.482Z" fill="#FFCB39"/>
<path d="M251.196 377.845L250.534 378.167L257.347 393.408L258.008 393.086L251.196 377.845Z" fill="#FFCB39"/>
<path d="M266.096 392.417L258.31 375.141L258.972 374.815L266.758 392.092L266.096 392.417Z" fill="#FFCB39"/>
<path d="M69.7654 450.152C69.2835 450.154 68.8022 450.12 68.325 450.05C53.6389 448.018 52.4904 442.855 52.4418 442.632L53.162 442.489C53.162 442.489 54.3688 447.337 68.4223 449.298C82.4758 451.26 100.967 420.314 101.152 419.999L101.775 420.406C101.035 421.656 84.1401 450.152 69.7654 450.152Z" fill="#FFCB39"/>
<path d="M168.197 193.993L166.846 195.173C163.71 197.912 159.66 199.238 155.588 198.859C151.515 198.481 147.753 196.428 145.13 193.153L123.176 165.744L148.177 143.908L170.156 171.348C172.767 174.624 174.027 178.848 173.66 183.093C173.293 187.338 171.328 191.258 168.197 193.993Z" fill="#FE4877"/>
<path d="M272.666 96.1211L271.751 96.8935L271.77 96.802L272.666 96.1211Z" fill="#FFCB39"/>
<path d="M287.78 298.249L231.877 411.056L212.413 400.893L251.77 281.988L287.78 298.249Z" fill="#FB9159"/>
<path d="M352.987 326.705L386.622 390.73L372.997 406.991L319.293 340.557L309.376 286.897L345.444 281.246L352.987 326.705Z" fill="#FB9159"/>
<path d="M223.546 441.544L158.34 411.056C161.649 403.017 171.809 404.226 179.751 406.991L205.055 411.056L211.342 393.779L237.863 404.165L223.546 441.544Z" fill="#161730"/>
<path d="M223.546 441.544C223.546 441.544 217.707 452.723 213.814 447.642C209.921 442.56 208.948 438.495 205.055 438.495C201.162 438.495 191.43 438.495 190.456 433.414C190.202 432.212 189.723 431.075 189.047 430.066C188.371 429.058 187.511 428.199 186.517 427.538C185.522 426.878 184.413 426.428 183.252 426.216C182.091 426.003 180.901 426.032 179.751 426.3C174.885 427.316 170.018 427.316 169.045 421.219C168.072 415.121 159.313 418.17 158.34 417.153C157.366 416.137 158.34 411.056 158.34 411.056L223.546 441.544Z" fill="#FE4877"/>
<path d="M238.145 404.958C238.145 404.958 224.52 404.958 223.546 412.072C222.573 419.186 219.653 431.381 213.814 430.365C207.975 429.349 208.452 434.481 208.452 434.481L223.546 441.544L238.145 404.958Z" fill="#FFCB39"/>
<path d="M203.412 411.909L202.774 412.279L207.641 421.43L208.28 421.06L203.412 411.909Z" fill="#FFCB39"/>
<path d="M194.186 411.43L193.519 411.739L197.412 420.887L198.079 420.577L194.186 411.43Z" fill="#FFCB39"/>
<path d="M387.05 380.567L410.894 416.645L396.296 449.166L344.714 448.15C344.714 448.15 349.58 434.938 362.233 435.955C374.885 436.971 379.751 436.971 379.751 436.971L377.804 417.662L366.612 402.926L387.05 380.567Z" fill="#161730"/>
<path d="M411.381 416.137C411.381 416.137 418.194 423.251 413.327 425.284C408.461 427.316 415.274 430.365 412.354 432.398C409.434 434.43 406.515 432.398 407.488 435.447C408.461 438.495 409.434 443.577 406.515 443.577C403.595 443.577 403.595 445.609 403.595 449.674C403.595 453.74 401.649 457.805 395.809 454.756C389.97 451.707 393.863 454.756 388.997 455.772C384.13 456.788 384.13 453.74 380.237 452.723C376.344 451.707 379.264 457.805 373.425 455.772C367.585 453.74 366.612 450.691 364.666 451.707C362.719 452.723 364.666 454.756 358.826 453.74C352.987 452.723 354.933 449.674 352.014 450.691C349.094 451.707 349.094 455.772 346.174 453.74C343.254 451.707 345.201 447.642 345.201 447.642H396.782L411.381 416.137Z" fill="#FE4877"/>
<path d="M404.276 430.883C404.276 430.883 388.997 420.202 391.916 413.088C394.836 405.974 389.97 399.877 388.997 395.812C388.023 391.747 388.023 385.232 391.916 387.681L411.381 416.137L404.276 430.883Z" fill="#FFCB39"/>
<path d="M365.152 447.642H345.201C346.231 444.289 348.239 441.356 350.943 439.253C353.648 437.15 356.915 435.983 360.286 435.914C360.286 435.914 366.612 443.577 365.152 447.642Z" fill="#FFCB39"/>
<path d="M378.253 421.378L378.21 422.139L386.069 422.629L386.113 421.868L378.253 421.378Z" fill="#FFCB39"/>
<path d="M378.853 427.512L378.78 428.271L387.476 429.182L387.549 428.423L378.853 427.512Z" fill="#FFCB39"/>
<path d="M379.826 433.579L379.735 434.335L387.519 435.352L387.609 434.595L379.826 433.579Z" fill="#FFCB39"/>
<path d="M415.819 449.136C401.435 449.136 384.539 420.68 383.799 419.389L384.422 418.983C384.607 419.298 402.914 450.274 417.152 448.282C431.391 446.29 432.413 441.514 432.422 441.473L433.133 441.615C433.133 441.839 431.945 446.991 417.25 449.034C416.776 449.103 416.298 449.137 415.819 449.136Z" fill="#FFCB39"/>
<path d="M376.403 342.457L366.534 352.477L361.201 357.894L356.938 362.274L345.892 373.453L340.88 378.535C339.498 379.775 329.016 361.644 328.16 360.608L328.101 360.537C327.858 360.232 327.605 359.937 327.352 359.632C323.751 355.333 319.78 351.045 317.143 346.004C317.016 345.77 316.899 345.526 316.782 345.282C316.122 343.946 315.575 342.552 315.147 341.115C312.88 333.382 314.33 325.282 313.026 317.457C313.026 317.192 312.938 316.928 312.889 316.674C312.802 316.206 312.695 315.749 312.588 315.282C312.481 314.814 312.413 314.56 312.315 314.184C311.3 311.173 310.114 308.227 308.763 305.363C305.756 299.092 302.32 290.545 299.225 282.415C299.021 281.887 298.826 281.399 298.632 280.85C297.444 277.71 296.315 274.651 295.293 271.846C292.004 276.531 291.916 284.682 292.218 290.139C292.315 291.938 292.452 293.34 292.539 294.56C292.539 294.885 292.539 295.19 292.588 295.495C292.666 297.985 292.354 299.916 290.641 303.676C287.284 310.993 281.483 317.141 277.522 324.154C277.327 324.499 277.143 324.845 276.958 325.17C276.773 325.495 276.714 325.627 276.588 325.861C273.58 331.735 272.072 337.559 270.748 343.636C270.69 343.91 270.622 344.195 270.563 344.479C269.834 347.782 269.133 351.166 268.247 354.642C267.047 358.436 265.461 362.085 263.517 365.527L263.284 365.913C262.018 367.945 260.724 369.256 259.653 368.85L254.972 367.092L253.892 366.685L227.011 356.675L225.882 356.248L221.619 354.652C220.912 351.632 220.549 348.534 220.539 345.425C220.539 333.951 224.87 322.355 230.271 312.639C232.796 307.741 235.913 303.201 239.546 299.133L240.792 297.822C241.172 297.436 241.532 297.06 241.872 296.684C244.724 293.635 246.816 290.921 247.838 285.901C249.045 279.915 249.785 273.807 251.177 267.872C251.705 265.668 252.388 263.508 253.22 261.409L253.542 260.606C256.25 254.345 259.93 248.593 264.432 243.583L265.026 242.912C265.746 242.099 266.486 241.307 267.245 240.524C269.191 238.492 271.138 236.591 273.24 234.752L344.286 242.882C345.417 244.151 346.452 245.51 347.381 246.947C352.636 255.077 353.22 264.082 352.87 273.32V274.092C352.52 282.466 351.498 291.023 352.588 299.346C352.588 299.611 352.656 299.865 352.695 300.119C352.802 300.84 352.919 301.562 353.065 302.283C355.177 313.015 359.303 318.219 365.872 326.115C366.087 326.379 366.632 326.999 367.362 327.843L367.868 328.432C371.42 332.619 378.174 340.851 376.403 342.457Z" fill="#161730"/>
<path d="M414.31 76.7L402.486 90.806L346.748 180.93L322.622 164.354L376.053 91.7003L378.447 86.9035L378.281 87.1575L376.354 67.5535L379.274 65.521L381.084 81.6087L396.792 59.4233L399.712 61.4558L387.138 78.3464L389.259 80.0741L402.632 61.4558L404.578 63.4884L391.984 82.2794L394.709 84.4949L406.525 65.521L409.444 68.5698L397.512 86.7713L399.225 88.1637L411.391 73.6512L414.31 76.7Z" fill="#FB9159"/>
<path d="M295.381 163.724L277.658 187.535L266.096 176.641L245.688 157.433L226.982 139.801L212.588 126.244L198.894 115.522L196.335 113.52L182.787 100.776L185.094 98.0114L198.719 109.749L200.286 107.249L185.95 93.5601L187.06 90.0742L202.213 104.2L204.101 101.202L188.432 87.5742L190.048 86.0701L205.561 98.8854L207.439 95.9077L192.607 84.2916L194.914 81.5172L209.016 93.4178L211.722 95.7044L215.731 99.1191L213.357 82.5944L216.685 83.7631L219.722 103.011L229.444 112.473L230.953 113.652L245.804 125.176L264.49 139.709L283.809 154.73L295.381 163.724Z" fill="#FB9159"/>
<path d="M312.958 188.724C312.398 191.151 311.301 193.406 309.756 195.31L308.617 196.712C307.313 198.329 305.716 199.662 303.919 200.635C302.121 201.607 300.158 202.201 298.141 202.381C296.123 202.561 294.092 202.325 292.162 201.685C290.233 201.046 288.443 200.016 286.894 198.654L278.33 191.103L260.743 175.604L263.264 172.484L280.977 150.573L281.765 149.557L294.729 161.051L307.916 172.667C309.268 173.863 310.416 175.289 311.313 176.885C313.291 180.467 313.879 184.703 312.958 188.724Z" fill="#FE4877"/>
<path d="M353.532 247.435L347.381 246.947L267.245 240.504L264.967 240.321C263.887 240.199 274.7 205.676 275.186 203.44C276.052 199.497 277.084 195.31 278.33 191.092C281.765 179.385 286.846 167.606 294.729 161.021C296.763 159.273 299.067 157.898 301.542 156.956C302.728 156.531 303.941 156.191 305.172 155.939C308.722 155.169 312.353 154.882 315.975 155.086C318.114 155.164 320.237 155.505 322.301 156.102C322.797 156.254 323.274 156.427 323.741 156.62C324.141 156.789 324.531 156.982 324.909 157.199C325.593 157.572 326.245 158.007 326.855 158.5C331.04 161.793 334.164 167.647 336.539 173.877C338.222 178.427 339.639 183.08 340.782 187.81C340.889 188.247 341.055 188.938 341.259 189.842C343.907 201.418 353.532 247.435 353.532 247.435Z" fill="#FFCB39"/>
<path d="M317.289 121.254L315.994 143.774V157.291C315.994 161.417 310.379 161.458 307.868 160.34C306.913 159.97 306.068 159.347 305.415 158.531C304.831 157.586 305.22 156.397 305.22 155.36V148.52L304.617 148.429C303.258 148.429 301.911 148.149 300.656 147.606C299.4 147.062 298.259 146.265 297.298 145.261C296.337 144.257 295.576 143.065 295.056 141.753C294.537 140.441 294.27 139.035 294.271 137.616V121.254H317.289Z" fill="#FB9159"/>
<path d="M294.826 126.101C293.337 126.101 289.96 136.183 289.96 136.183H294.826V126.101Z" fill="#FF534A"/>
<path d="M304.111 138.906C306.164 138.906 307.829 137.168 307.829 135.024C307.829 132.88 306.164 131.142 304.111 131.142C302.058 131.142 300.393 132.88 300.393 135.024C300.393 137.168 302.058 138.906 304.111 138.906Z" fill="#FF534A"/>
<path d="M301.726 127.331C301.693 127.279 301.654 127.231 301.61 127.189C301.398 127.017 301.146 126.908 300.88 126.874C299.722 126.62 296.743 125.857 296.315 127.656C295.965 129.079 297.902 128.866 298.914 128.815C299.926 128.764 302.427 128.652 301.726 127.331Z" fill="white"/>
<path d="M298.233 126.498C298.233 126.498 299.42 127.341 298.233 128.855C298.233 128.855 295.936 129.201 296.286 127.656C296.337 127.444 296.428 127.245 296.554 127.07C296.681 126.896 296.84 126.75 297.022 126.642C297.204 126.533 297.405 126.465 297.613 126.44C297.821 126.415 298.032 126.435 298.233 126.498Z" fill="#0C0604"/>
<path d="M302.622 126.884C302.622 126.884 296.315 126.101 296.315 125.715C296.315 125.329 295.936 123.774 297.055 123.774C298.174 123.774 303.741 125.715 303.361 126.101C302.982 126.488 303.361 126.498 302.622 126.884Z" fill="#161730"/>
<path d="M296.208 141.406C295.609 141.399 295.018 141.257 294.476 140.99L294.807 140.309C294.885 140.309 296.753 141.325 297.882 139.831L298.456 140.299C298.191 140.654 297.849 140.94 297.459 141.133C297.068 141.325 296.64 141.419 296.208 141.406Z" fill="#33270A"/>
<path d="M336.366 142.953L361.367 164.789L339.413 192.198C336.79 195.473 333.028 197.525 328.956 197.904C324.883 198.283 320.833 196.957 317.697 194.217L316.353 193.044C313.217 190.305 311.252 186.377 310.889 182.124C310.526 177.872 311.796 173.643 314.419 170.368L336.374 142.959L336.366 142.953Z" fill="#FE4877"/>
<path d="M306.816 126.498C306.816 126.498 307.011 137.677 308.86 135.156C310.709 132.636 311.683 125.481 311.683 125.481L316.014 126.498L315.323 138.469C315.323 138.469 326.281 128.53 321.415 118.367C316.549 108.205 307.79 107.188 301.95 109.221C296.111 111.254 288.325 116.335 288.325 123.449C288.325 130.563 307.79 122.433 307.79 122.433L306.816 126.498Z" fill="#6562BE"/>
<path d="M313.58 134.181C315.94 134.181 317.853 132.183 317.853 129.719C317.853 127.255 315.94 125.258 313.58 125.258C311.221 125.258 309.308 127.255 309.308 129.719C309.308 132.183 311.221 134.181 313.58 134.181Z" fill="#FB9159"/>
<path d="M314.924 129.994L314.836 130.746C314.222 130.682 313.61 130.876 313.133 131.284C312.902 131.58 312.737 131.926 312.651 132.298C312.565 132.669 312.56 133.055 312.636 133.429L311.916 133.51C311.804 132.762 311.912 131.996 312.228 131.315C312.048 130.955 311.939 130.56 311.907 130.155C311.876 129.751 311.922 129.343 312.043 128.957C312.105 128.799 312.197 128.656 312.314 128.537C312.432 128.418 312.571 128.326 312.724 128.266L312.958 128.988C312.835 129.049 312.741 129.159 312.695 129.292C312.562 129.729 312.583 130.201 312.753 130.624C313.372 130.129 314.149 129.903 314.924 129.994Z" fill="#0C0604"/>
<path d="M312.5 121.762C312.5 121.762 312.5 137.921 309.405 136.843C306.31 135.766 305.269 135.766 306.31 120.685C307.352 105.603 312.5 121.762 312.5 121.762Z" fill="#6562BE"/>
<path d="M276.062 268.167C276.062 268.025 276.062 267.882 276.062 267.74C276.062 267.425 276.062 267.11 276.062 266.795C275.839 262.196 275.309 257.618 274.476 253.096C274.417 252.821 274.369 252.557 274.31 252.303C273.892 250.148 273.303 248.034 272.549 245.982C272.413 245.595 272.267 245.25 272.14 244.965C271.877 244.322 271.551 243.709 271.167 243.136L270.593 243.614C270.791 243.9 270.967 244.202 271.118 244.518C271.245 244.793 271.4 245.128 271.576 245.534C272.469 247.794 273.15 250.139 273.61 252.537C273.668 252.801 273.717 253.065 273.765 253.339C274.617 258.101 275.134 262.92 275.313 267.76C275.313 267.821 275.313 267.872 275.313 267.933C275.313 268.34 275.313 268.756 275.361 269.163C275.561 275.807 274.78 282.443 273.045 288.838C272.987 289.092 272.919 289.336 272.841 289.58C272.685 290.136 272.52 290.694 272.344 291.257C269.973 298.854 266.292 305.935 261.483 312.151L261.006 312.761C258.729 315.653 256.23 318.345 253.532 320.81C251.898 322.302 250.363 323.908 248.938 325.617C248.426 326.227 247.929 326.847 247.449 327.477C244.281 326.23 241.027 325.231 237.717 324.489L236.588 324.225C234.787 323.798 233.162 323.412 231.906 322.975C231.629 322.884 231.356 322.779 231.089 322.66C230.116 322.233 229.425 321.725 229.298 321.074C229.279 320.625 229.349 320.175 229.505 319.755C229.661 319.335 229.898 318.954 230.203 318.635C230.36 318.408 230.529 318.191 230.709 317.985C233.371 315.115 236.288 312.515 239.42 310.221C240.51 309.367 241.571 308.513 242.593 307.66C242.924 307.395 243.245 307.121 243.566 306.847C246.563 304.326 249.24 301.857 251.595 299.468L252.179 298.869C254.743 296.275 257.13 293.497 259.323 290.556C259.546 290.251 259.77 289.946 259.975 289.641C260.734 288.574 261.405 287.547 261.979 286.592C264.49 282.364 265.434 278.939 264.899 276.714C264.708 275.959 264.29 275.288 263.707 274.8C263.123 274.311 262.405 274.031 261.658 274L261.571 274.752C262.173 274.766 262.756 274.984 263.228 275.375C263.701 275.766 264.038 276.308 264.189 276.917C264.714 278.95 263.76 282.232 261.327 286.287C260.633 287.446 259.819 288.665 258.885 289.946C258.661 290.261 258.417 290.586 258.164 290.962C256.263 293.457 254.222 295.833 252.052 298.076C251.848 298.3 251.634 298.513 251.42 298.726C249.24 300.962 246.778 303.269 244.043 305.607C243.488 306.094 242.933 306.562 242.359 307.04C241.279 307.934 240.169 308.838 239.011 309.743C231.079 315.952 228.169 319.204 228.607 321.369C228.831 322.436 229.785 323.127 231.323 323.707C231.576 323.808 231.848 323.9 232.13 323.981C233.327 324.357 234.778 324.703 236.451 325.099L237.512 325.343C240.75 326.057 243.932 327.026 247.031 328.239C239.77 338.056 236.802 349.205 239.41 354.063C239.503 354.242 239.607 354.415 239.722 354.581V354.632L240.16 355.171C240.701 355.735 241.35 356.173 242.064 356.459C242.778 356.744 243.542 356.87 244.306 356.827C245.583 356.798 246.85 356.569 248.062 356.146C249.884 355.563 251.677 354.884 253.434 354.114C253.687 354.012 253.931 353.9 254.164 353.788C254.645 353.578 255.102 353.355 255.537 353.118L256.413 352.66C257.026 352.315 257.6 351.979 258.135 351.644C259.839 350.618 261.32 349.234 262.486 347.579C262.713 347.229 262.914 346.862 263.089 346.481C263.386 345.84 263.586 345.154 263.683 344.449C264.218 340.323 260.967 335.851 253.999 331.136C252.727 330.286 251.404 329.522 250.038 328.849C249.425 328.544 248.812 328.249 248.198 327.985C248.539 327.538 248.889 327.091 249.259 326.654C250.732 324.841 252.329 323.143 254.038 321.572C256.759 319.083 259.278 316.364 261.571 313.442C261.726 313.239 261.892 313.036 262.038 312.832C266.908 306.551 270.638 299.395 273.045 291.714C273.25 291.074 273.444 290.423 273.619 289.773L273.824 289.031C275.639 282.247 276.394 275.202 276.062 268.167ZM250.369 329.692C251.466 330.263 252.532 330.897 253.561 331.593C260.267 336.126 263.42 340.353 262.924 344.154C262.795 345.116 262.463 346.036 261.95 346.847C261.632 347.342 261.274 347.808 260.88 348.24C259.971 349.199 258.959 350.045 257.863 350.76L257.142 351.217C256.734 351.481 256.306 351.725 255.858 351.969C255.41 352.213 254.758 352.549 254.164 352.823C253.931 352.945 253.678 353.057 253.434 353.169C251.61 353.984 249.746 354.697 247.848 355.303C244.004 356.553 241.298 355.963 240.062 353.575C237.571 348.941 240.724 337.935 247.77 328.432C248.607 328.818 249.493 329.235 250.369 329.692Z" fill="white"/>
<path d="M353.824 333.636L353.308 333.006C351.824 331.207 350.231 329.51 348.539 327.924L347.984 327.396C347.011 326.532 346.038 325.668 345.065 324.835C348.286 322.07 350.622 319.286 351.313 316.369C351.474 315.736 351.549 315.083 351.537 314.428C351.487 313.025 351.073 311.662 350.34 310.485C349.084 308.34 346.807 306.237 343.527 304.123L348.938 301.806L349.911 301.389L350.593 301.094L352.743 300.17C352.743 299.916 352.666 299.661 352.636 299.397L350.223 300.414L349.542 300.698L348.802 301.023L342.729 303.605L342.602 303.523C332.208 297.263 325.853 290.413 323.206 284.763C323.095 284.546 322.998 284.333 322.914 284.123C325.039 282.096 327.041 279.934 328.909 277.649C329.065 277.476 329.211 277.283 329.357 277.1C330.732 275.359 331.954 273.492 333.006 271.521L333.065 271.419C334.876 271.389 336.687 271.487 338.486 271.714C343.77 272.354 348.627 273.167 352.919 274.112V273.34C347.079 272.08 341.532 271.307 338.544 270.962C336.845 270.749 335.136 270.643 333.425 270.647C336.237 265.047 336.831 261.063 335.303 258.167C332.383 252.699 322.349 252.069 308.422 251.276C305.289 251.093 302.038 250.89 298.622 250.636C292.034 249.993 285.396 250.194 278.855 251.236L278.116 251.368C276.685 251.652 275.42 251.978 274.291 252.323L273.59 252.547C268.062 254.386 266.31 256.703 266.184 256.876L266.768 257.344C266.768 257.344 268.471 255.128 273.746 253.35L274.456 253.116C275.765 252.703 277.094 252.364 278.437 252.1L279.177 251.967C285.595 250.948 292.108 250.747 298.573 251.368C301.989 251.632 305.24 251.825 308.383 252.018C321.551 252.801 331.965 253.421 334.661 258.512C336.082 261.195 335.4 265.159 332.588 270.647C328.841 270.789 325.911 271.663 323.936 273.157C323.735 273.295 323.546 273.451 323.371 273.624C322.433 274.455 321.735 275.542 321.357 276.765C320.723 279.161 320.938 281.715 321.96 283.96L320.714 285.129C319.819 285.982 318.933 286.795 318.067 287.598C315.539 289.818 313.141 292.194 310.885 294.712C308.627 297.426 307.323 300.017 307.819 302.609C308.257 304.926 310.125 307.111 313.571 309.255C315.961 310.685 318.457 311.912 321.035 312.924C318.846 313.94 316.753 314.855 314.778 315.769L312.938 316.643C312.987 316.898 313.035 317.162 313.074 317.426L314.924 316.542C317.211 315.526 319.585 314.387 322.009 313.31C322.885 313.645 323.799 313.991 324.753 314.326C331.625 316.746 338.089 320.282 343.906 324.804C340.821 327.355 336.987 329.886 333.065 332.528C328.65 335.331 324.405 338.416 320.354 341.766C319.439 342.569 318.593 343.372 317.804 344.185C317.454 344.551 317.133 344.906 316.831 345.201C316.948 345.445 317.065 345.689 317.191 345.922C317.542 345.516 317.911 345.099 318.32 344.672C319.089 343.87 319.926 343.077 320.821 342.294C324.859 338.983 329.084 335.929 333.473 333.148C337.464 330.485 341.366 327.884 344.52 325.262C345.619 326.146 346.671 327.05 347.663 327.975L348.218 328.503C349.765 329.959 351.228 331.51 352.598 333.148C352.779 333.365 352.954 333.578 353.123 333.788C359.566 341.725 362.349 349.957 361.211 355.567C360.237 360.496 356.344 362.905 350.223 362.356H349.843C345.104 361.929 340.306 361.492 335.848 360.943C332.841 360.567 330.009 360.14 327.41 359.622C327.663 359.927 327.916 360.222 328.16 360.526C330.758 361.014 333.58 361.431 336.529 361.787C340.782 362.305 345.289 362.711 349.775 363.118H350.155C350.729 363.169 351.293 363.199 351.829 363.199C353.6 363.238 355.36 362.892 356.997 362.183C358.895 361.362 360.421 359.813 361.259 357.854C361.56 357.178 361.785 356.469 361.931 355.74C363.021 350.079 360.257 341.705 353.824 333.636ZM321.999 276.998C322.365 275.839 323.04 274.813 323.945 274.041C324.126 273.877 324.318 273.728 324.52 273.594C326.815 272.166 329.439 271.417 332.111 271.429C331.112 273.261 329.962 274.999 328.675 276.622L328.237 277.171C326.453 279.355 324.542 281.422 322.515 283.36C321.647 281.365 321.465 279.118 321.999 276.998ZM321.95 312.568C318.954 311.455 316.07 310.039 313.337 308.34C310.417 306.45 308.86 304.54 308.471 302.548C308.053 300.383 309.113 298.137 311.001 295.759C313.319 293.064 315.82 290.547 318.486 288.228C319.624 287.212 320.802 286.094 321.979 284.976L322.213 284.753L322.291 284.925C325.094 291.094 332.082 298.137 341.756 304.001L340.695 304.448C333.931 307.294 327.615 309.997 321.95 312.477V312.568ZM344.432 324.398C338.532 319.767 331.961 316.151 324.967 313.686L322.972 312.954C329.045 310.251 335.342 307.578 341.045 305.16L342.622 304.489C348.052 307.832 350.719 311.105 350.797 314.469C350.875 317.833 348.276 321.085 344.432 324.347V324.398Z" fill="white"/>
<path d="M252.16 298.889L251.576 299.489C252.685 303.554 256.442 308.239 261.016 312.782L261.493 312.172C256.812 307.568 253.055 302.822 252.16 298.889ZM252.16 298.889L251.576 299.489C252.685 303.554 256.442 308.239 261.016 312.782L261.493 312.172C256.812 307.568 253.055 302.822 252.16 298.889ZM367.332 327.843C363.128 329.611 359.177 331.166 355.897 332.233C354.972 332.538 354.116 332.792 353.308 333.006C353.045 333.077 352.792 333.148 352.539 333.199C349.619 333.91 347.673 333.961 347.021 333.046C346.612 332.467 346.632 331.217 348.16 328.554C348.263 328.351 348.39 328.138 348.539 327.914C349.692 326.072 350.953 324.307 352.315 322.629L352.52 322.375C356.413 317.548 355.683 310.18 350.515 301.033L350.145 300.383L350.057 300.231C349.444 299.214 348.782 298.198 348.111 297.09C344.513 291.877 340.396 287.077 335.829 282.771C333.717 280.738 331.527 278.848 329.318 277.09L328.734 276.633C327.352 275.555 325.96 274.539 324.578 273.584L323.926 273.147C316.841 268.452 310.009 265.809 305.25 266.937C301.697 267.781 299.663 270.606 299.196 275.332C299.011 277.222 298.826 279.051 298.671 280.83C298.865 281.348 299.06 281.846 299.264 282.395C299.469 280.159 299.683 277.832 299.926 275.413C300.354 271.043 302.203 268.441 305.415 267.679C309.98 266.592 316.539 269.112 323.362 273.614L324.004 274.031C325.431 274.993 326.862 276.036 328.296 277.161L328.87 277.618C330.933 279.255 332.967 281.023 334.943 282.893C340.034 287.638 344.557 293.009 348.413 298.889C348.773 299.468 349.123 300.048 349.464 300.617L349.834 301.277C353.386 307.528 356.432 315.841 352.15 321.603C352.091 321.694 352.023 321.776 351.955 321.867C350.527 323.615 349.201 325.451 347.984 327.365L347.605 328.006C346.067 330.658 345.658 332.436 346.437 333.473C347.293 334.662 349.561 334.693 353.065 333.819L353.824 333.615C354.583 333.412 355.391 333.168 356.257 332.884C359.459 331.867 363.342 330.312 367.838 328.412L367.332 327.843ZM264.169 345.831L263.04 346.319C262.641 346.492 262.271 346.675 261.911 346.847C260.305 347.586 258.81 348.566 257.473 349.754C256.777 350.363 256.21 351.118 255.809 351.969C255.658 352.291 255.55 352.633 255.488 352.986C255.488 352.986 255.488 352.986 255.488 353.036C255.206 354.795 256.062 356.543 258.038 358.23C259.046 359.096 260.135 359.856 261.289 360.496L262.349 361.075L262.671 360.394C262.022 360.056 261.428 359.717 260.889 359.378C259.997 358.843 259.153 358.224 258.369 357.528C256.714 356.045 255.975 354.561 256.198 353.148C256.234 352.933 256.29 352.722 256.364 352.518C256.538 352.04 256.784 351.594 257.094 351.197C257.284 350.94 257.495 350.702 257.726 350.486C258.658 349.587 259.703 348.824 260.831 348.219C261.327 347.935 261.853 347.66 262.427 347.396C262.816 347.203 263.225 347.01 263.653 346.837C265.874 345.894 268.149 345.1 270.466 344.459C270.525 344.175 270.593 343.89 270.651 343.616C268.466 344.231 266.315 344.97 264.208 345.831H264.169ZM262.048 312.7L261.522 312.172C256.841 307.568 253.084 302.822 252.189 298.889C252.119 298.584 252.067 298.276 252.033 297.964C251.942 297.231 251.984 296.486 252.16 295.769C252.724 293.574 254.729 291.948 258.145 290.901C258.515 290.789 258.914 290.678 259.332 290.576C262.1 289.953 264.92 289.612 267.751 289.56H268.529C268.987 289.56 269.444 289.56 269.892 289.56C270.914 289.56 271.907 289.56 272.88 289.641H273.629C280.318 289.949 286.834 291.951 292.617 295.474C292.617 295.17 292.617 294.865 292.568 294.539C286.827 291.167 280.413 289.236 273.834 288.899H273.084C271.371 288.797 269.58 288.777 267.722 288.838H266.962C264.622 288.924 262.292 289.203 259.994 289.671C259.605 289.753 259.235 289.844 258.875 289.946C254.632 291.054 252.15 292.934 251.469 295.586C251.228 296.585 251.208 297.627 251.41 298.635C251.469 298.92 251.527 299.214 251.615 299.509C252.724 303.574 256.481 308.259 261.055 312.802L261.59 313.33C265.78 317.331 270.197 321.064 274.816 324.51C275.43 324.987 276.033 325.434 276.617 325.861C276.744 325.627 276.86 325.394 276.987 325.17L275.167 323.798C270.597 320.36 266.217 316.655 262.048 312.7ZM252.189 298.889L251.605 299.489C252.714 303.554 256.471 308.239 261.045 312.782L261.522 312.172C256.812 307.568 253.055 302.822 252.16 298.889H252.189Z" fill="white"/>
<path d="M276.481 267.435C276.344 267.689 276.208 267.933 276.062 268.167C275.916 268.401 275.605 268.868 275.371 269.183C274.693 270.17 273.801 270.975 272.767 271.532C271.733 272.088 270.588 272.38 269.425 272.385H269.22C263.965 272.252 257.892 266.764 253.22 261.388L253.542 260.586C258.145 265.931 264.169 271.49 269.24 271.622C271.673 271.622 273.717 270.454 275.323 267.954C275.513 267.669 275.689 267.374 275.848 267.069L275.994 266.795C279.108 260.911 279.887 255.972 278.388 252.1C278.299 251.841 278.192 251.589 278.067 251.348L277.97 251.144C276.7 248.868 274.781 247.063 272.481 245.982C272.169 245.819 271.848 245.667 271.507 245.524C269.242 244.547 266.863 243.887 264.432 243.563L265.026 242.892C267.084 243.199 269.104 243.741 271.05 244.508C271.4 244.64 271.741 244.793 272.072 244.955C274.81 246.081 277.107 248.136 278.593 250.789C278.661 250.931 278.729 251.073 278.787 251.215C278.912 251.457 279.02 251.709 279.108 251.967C280.675 256.094 279.79 261.287 276.481 267.435Z" fill="white"/>
<path d="M190.359 122.27V138.602C190.359 140.022 190.091 141.428 189.571 142.74C189.05 144.052 188.288 145.244 187.326 146.248C186.365 147.252 185.223 148.048 183.967 148.592C182.71 149.135 181.364 149.415 180.004 149.415L179.4 149.506V156.346C179.4 157.362 179.799 158.571 179.206 159.517C178.556 160.331 177.714 160.955 176.763 161.326C174.242 162.474 168.636 162.433 168.636 158.277V144.791L167.332 122.28L190.359 122.27Z" fill="#FFCB39"/>
<path d="M189.804 127.118C191.284 127.118 194.671 137.199 194.671 137.199H189.804V127.118Z" fill="#FF534A"/>
<path d="M180.52 139.923C182.573 139.923 184.237 138.185 184.237 136.041C184.237 133.896 182.573 132.158 180.52 132.158C178.466 132.158 176.802 133.896 176.802 136.041C176.802 138.185 178.466 139.923 180.52 139.923Z" fill="#FF534A"/>
<path d="M177.542 124.404C177.542 124.404 178.982 122.27 183.118 123.632C187.254 124.994 199.079 124.404 200.568 116.264C202.057 108.123 193.143 107.737 188.685 113.936C188.607 111.426 186.67 109.282 182.953 109.109C181.979 109.109 183.78 105.308 182.885 105.786C181.5 106.385 180.337 107.432 179.566 108.774C179.079 109.79 179.04 111.02 178.651 112.107C177.892 114.14 176.091 115.095 174.174 115.684C171.731 116.447 168.033 116.376 166.038 118.205C163.06 120.918 157.804 130.746 167.517 137.199L175.692 125.573V149.415C175.692 149.415 184.393 155.065 189.96 152.352C193.746 150.502 190.135 145.736 190.505 141.081C190.641 139.354 190.943 138.032 189.279 138.032H187.254C186.693 138.03 186.144 138.207 185.681 138.539C185.218 138.871 184.864 139.344 184.666 139.892C183.4 143.398 180.675 150.055 180.111 143.846C179.4 135.644 177.542 124.404 177.542 124.404Z" fill="#6562BE"/>
<path d="M171.05 136.813C173.41 136.813 175.323 134.815 175.323 132.351C175.323 129.887 173.41 127.89 171.05 127.89C168.69 127.89 166.778 129.887 166.778 132.351C166.778 134.815 168.69 136.813 171.05 136.813Z" fill="#FFCB39"/>
<path d="M172.714 134.526L171.984 134.445C172.065 134.072 172.062 133.684 171.976 133.312C171.89 132.94 171.723 132.594 171.488 132.301C171.254 132.098 170.984 131.947 170.693 131.854C170.402 131.762 170.097 131.73 169.795 131.762L169.707 131.01C170.476 130.926 171.248 131.147 171.868 131.63C172.038 131.211 172.059 130.742 171.926 130.309C171.882 130.177 171.791 130.068 171.673 130.004L171.897 129.282C172.051 129.342 172.192 129.434 172.311 129.553C172.43 129.672 172.524 129.815 172.588 129.973C172.708 130.358 172.753 130.764 172.721 131.167C172.689 131.57 172.581 131.962 172.403 132.321C172.724 133.004 172.833 133.775 172.714 134.526Z" fill="#0C0604"/>
<path d="M182.904 128.347C182.934 128.295 182.97 128.247 183.011 128.205C183.223 128.033 183.475 127.924 183.741 127.89C184.909 127.636 187.887 126.874 188.315 128.673C188.656 130.095 186.729 129.882 185.717 129.831C184.705 129.78 182.242 129.668 182.904 128.347Z" fill="white"/>
<path d="M186.388 127.514C186.388 127.514 185.211 128.357 186.388 129.872C186.388 129.872 188.685 130.217 188.335 128.673C188.283 128.461 188.191 128.262 188.064 128.089C187.938 127.915 187.779 127.77 187.597 127.662C187.415 127.554 187.215 127.485 187.007 127.459C186.799 127.434 186.589 127.453 186.388 127.514Z" fill="#0C0604"/>
<path d="M181.999 127.9C181.999 127.9 188.315 127.118 188.315 126.731C188.315 126.345 188.685 124.79 187.576 124.79C186.466 124.79 180.889 126.731 181.259 127.118C181.629 127.504 181.269 127.514 181.999 127.9Z" fill="#161730"/>
<path d="M189.804 139.14C190.059 139.9 190.157 140.708 190.092 141.51C190.027 142.312 189.799 143.091 189.425 143.795L185.717 143.561C185.717 143.561 183.673 138.693 189.804 139.14Z" fill="#FFCB39"/>
<path d="M188.422 142.423C187.991 142.436 187.562 142.342 187.171 142.15C186.781 141.957 186.439 141.671 186.174 141.315L186.748 140.848C187.838 142.321 189.746 141.366 189.824 141.325L190.145 142.006C189.606 142.273 189.019 142.415 188.422 142.423Z" fill="#33270A"/>
<path d="M191.001 113.195L163.663 130.756C163.201 131.056 162.651 131.171 162.114 131.079C161.577 130.987 161.09 130.696 160.744 130.258L159.77 128.977C159.557 128.711 159.402 128.398 159.318 128.061C159.234 127.724 159.222 127.372 159.283 127.031C159.345 126.689 159.478 126.365 159.673 126.083C159.868 125.801 160.121 125.568 160.413 125.4L161.152 124.973C160.403 123.957 155.313 117.585 151.566 118.367C147.537 119.201 142.7 114.16 149.152 112.473C155.605 110.786 170.057 99.0581 173.279 103.215C176.5 107.371 183.984 95.6739 187.108 109.963L178.914 114.749L188.714 109.119C189.049 108.929 189.423 108.827 189.804 108.825C190.298 108.822 190.778 108.988 191.172 109.298C191.566 109.608 191.853 110.043 191.987 110.539C192.122 111.034 192.097 111.562 191.918 112.042C191.738 112.521 191.413 112.926 190.992 113.195H191.001Z" fill="#FB9159"/>
<path d="M144.267 121.721C145.6 121.721 146.68 120.593 146.68 119.201C146.68 117.809 145.6 116.68 144.267 116.68C142.934 116.68 141.853 117.809 141.853 119.201C141.853 120.593 142.934 121.721 144.267 121.721Z" fill="#FB9159"/>
<path d="M196.724 133.104H195.994V126.406L171.079 128.398L171.021 127.646L196.724 125.573V133.104Z" fill="#161730"/>
<path d="M173.58 404.826C173.58 404.826 175.692 417.743 173.58 418.038C171.469 418.332 156.87 410.223 156.87 410.223C156.87 410.223 159.147 401.442 173.58 404.826Z" fill="#FFCB39"/>
</svg>
